<svg width="35" height="35" viewBox="0 0 35 35" fill="none" xmlns="http://www.w3.org/2000/svg">
<path fill-rule="evenodd" clip-rule="evenodd" d="M17.5 0C7.83523 0 0 7.83523 0 17.5C0 27.1648 7.83523 35 17.5 35C27.1648 35 35 27.1648 35 17.5C35 7.83523 27.1648 0 17.5 0ZM19.0909 23.8636C19.0909 24.2856 18.9233 24.6902 18.6249 24.9886C18.3266 25.2869 17.9219 25.4545 17.5 25.4545C17.0781 25.4545 16.6734 25.2869 16.3751 24.9886C16.0767 24.6902 15.9091 24.2856 15.9091 23.8636V19.0909H11.1364C10.7144 19.0909 10.3098 18.9233 10.0114 18.6249C9.71307 18.3266 9.54545 17.9219 9.54545 17.5C9.54545 17.0781 9.71307 16.6734 10.0114 16.3751C10.3098 16.0767 10.7144 15.9091 11.1364 15.9091H15.9091V11.1364C15.9091 10.7144 16.0767 10.3098 16.3751 10.0114C16.6734 9.71307 17.0781 9.54545 17.5 9.54545C17.9219 9.54545 18.3266 9.71307 18.6249 10.0114C18.9233 10.3098 19.0909 10.7144 19.0909 11.1364V15.9091H23.8636C24.2856 15.9091 24.6902 16.0767 24.9886 16.3751C25.2869 16.6734 25.4545 17.0781 25.4545 17.5C25.4545 17.9219 25.2869 18.3266 24.9886 18.6249C24.6902 18.9233 24.2856 19.0909 23.8636 19.0909H19.0909V23.8636Z" fill="#1D9BF0"/>
</svg>
