<svg width="23" height="25" viewBox="0 0 23 25" fill="none" xmlns="http://www.w3.org/2000/svg">
<path d="M19.4615 13.4362V11.2069H17.7692V13.7931C17.7693 14.0217 17.8585 14.241 18.0172 14.4026L20.3077 16.7362V18.1034H1.69231V16.7362L3.98285 14.4026C4.14154 14.241 4.23072 14.0217 4.23077 13.7931V10.3448C4.22841 9.13344 4.53987 7.94288 5.13369 6.89338C5.72751 5.84388 6.58266 4.97262 7.61276 4.36759C8.64286 3.76257 9.81144 3.44521 11.0005 3.44757C12.1895 3.44993 13.3568 3.77192 14.3846 4.38103V2.45431C13.5792 2.09097 12.7225 1.85938 11.8462 1.7681V0H10.1538V1.76724C8.06772 1.98356 6.13441 2.98027 4.72777 4.56464C3.32114 6.14901 2.54109 8.20848 2.53846 10.3448V13.4362L0.247923 15.7698C0.0892274 15.9315 4.7924e-05 16.1507 0 16.3793V18.9655C0 19.1942 0.0891481 19.4134 0.247833 19.5751C0.406517 19.7368 0.62174 19.8276 0.846154 19.8276H6.76923V20.6897C6.76923 21.8328 7.21497 22.9292 8.00839 23.7375C8.80182 24.5459 9.87793 25 11 25C12.1221 25 13.1982 24.5459 13.9916 23.7375C14.785 22.9292 15.2308 21.8328 15.2308 20.6897V19.8276H21.1538C21.3783 19.8276 21.5935 19.7368 21.7522 19.5751C21.9109 19.4134 22 19.1942 22 18.9655V16.3793C22 16.1507 21.9108 15.9315 21.7521 15.7698L19.4615 13.4362ZM13.5385 20.6897C13.5385 21.3756 13.271 22.0334 12.795 22.5184C12.3189 23.0034 11.6732 23.2759 11 23.2759C10.3268 23.2759 9.68109 23.0034 9.20504 22.5184C8.72898 22.0334 8.46154 21.3756 8.46154 20.6897V19.8276H13.5385V20.6897Z" fill="white"/>
<path d="M19.5 10C21.433 10 23 8.433 23 6.5C23 4.567 21.433 3 19.5 3C17.567 3 16 4.567 16 6.5C16 8.433 17.567 10 19.5 10Z" fill="#1D9BF0"/>
</svg>
