<svg width="15" height="15" viewBox="0 0 15 15" fill="none" xmlns="http://www.w3.org/2000/svg">
<path d="M3.08824 14.1176H2.20588L2.73529 13.4118C3.08824 12.9265 3.30882 12.3088 3.44118 11.5588C1.23529 10.5441 0 8.64706 0 6.17647C0 2.38235 2.86765 0 7.5 0C12.1324 0 15 2.38235 15 6.17647C15 10.0588 12.1765 12.3529 7.5 12.3529H7.19118C6.48529 13.1912 5.25 14.1176 3.08824 14.1176ZM7.5 0.882353C3.35294 0.882353 0.882353 2.86765 0.882353 6.17647C0.882353 9 2.60294 10.3235 4.05882 10.8971L4.36765 11.0294L4.32353 11.3824C4.23529 12.0882 4.10294 12.7059 3.83824 13.2353C5.29412 13.0588 6.13235 12.3088 6.61765 11.6912L6.75 11.5147H7.5C13.4559 11.5147 14.1176 7.80882 14.1176 6.22059C14.1176 2.86765 11.6471 0.882353 7.5 0.882353Z" fill="#687684"/>
</svg>
