<svg width="20" height="20" viewBox="0 0 20 20" fill="none" xmlns="http://www.w3.org/2000/svg">
<path d="M3.33333 13.7503V16.667C3.33333 17.109 3.50893 17.5329 3.82149 17.8455C4.13405 18.1581 4.55797 18.3337 5 18.3337H15C15.442 18.3337 15.866 18.1581 16.1785 17.8455C16.4911 17.5329 16.6667 17.109 16.6667 16.667V13.7503M2.5 11.667V10.8337C2.5 10.3916 2.67559 9.96771 2.98816 9.65515C3.30072 9.34259 3.72464 9.16699 4.16667 9.16699H15.8333C16.2754 9.16699 16.6993 9.34259 17.0118 9.65515C17.3244 9.96771 17.5 10.3916 17.5 10.8337V11.667M10 6.66699V9.16699M10 6.66699C11.0517 6.66699 11.6667 5.86033 11.6667 4.47949C11.6667 3.09866 10 1.66699 10 1.66699C10 1.66699 8.33333 3.09866 8.33333 4.47949C8.33333 5.86033 8.94833 6.66699 10 6.66699Z" stroke="#7C7C7C" stroke-width="1.5" stroke-linecap="round" stroke-linejoin="round"/>
<path d="M2.5 11.667C2.5 12.33 2.76339 12.9659 3.23223 13.4348C3.70107 13.9036 4.33696 14.167 5 14.167C5.66304 14.167 6.29893 13.9036 6.76777 13.4348C7.23661 12.9659 7.5 12.33 7.5 11.667C7.5 12.33 7.76339 12.9659 8.23223 13.4348C8.70107 13.9036 9.33696 14.167 10 14.167C10.663 14.167 11.2989 13.9036 11.7678 13.4348C12.2366 12.9659 12.5 12.33 12.5 11.667C12.5 12.33 12.7634 12.9659 13.2322 13.4348C13.7011 13.9036 14.337 14.167 15 14.167C15.663 14.167 16.2989 13.9036 16.7678 13.4348C17.2366 12.9659 17.5 12.33 17.5 11.667" stroke="#7C7C7C" stroke-width="1.5" stroke-linecap="round" stroke-linejoin="round"/>
</svg>
