<svg width="23" height="23" viewBox="0 0 23 23" fill="none" xmlns="http://www.w3.org/2000/svg">
<path d="M19.6875 13.125V17.8125C19.6875 18.3098 19.49 18.7867 19.1383 19.1383C18.7867 19.49 18.3098 19.6875 17.8125 19.6875H4.6875C4.19022 19.6875 3.71331 19.49 3.36167 19.1383C3.01004 18.7867 2.8125 18.3098 2.8125 17.8125V4.6875C2.8125 4.19022 3.01004 3.71331 3.36167 3.36167C3.71331 3.01004 4.19022 2.8125 4.6875 2.8125H9.375V4.6875H4.6875V17.8125H17.8125V13.125H19.6875Z" fill="#687684"/>
<path d="M19.6875 6.5625H15.9375V2.8125H14.0625V6.5625H10.3125V8.4375H14.0625V12.1875H15.9375V8.4375H19.6875V6.5625Z" fill="#687684"/>
</svg>
