<svg width="23" height="23" viewBox="0 0 23 23" fill="none" xmlns="http://www.w3.org/2000/svg">
<path d="M21.0938 16.875H18.2812V14.0625H16.875V16.875H14.0625V18.2812H16.875V21.0938H18.2812V18.2812H21.0938V16.875Z" fill="#687684"/>
<path d="M10.8281 21.0938L3.51562 16.7344C3.09375 16.4531 2.8125 16.0312 2.8125 15.5391V6.96094C2.8125 6.46875 3.09375 5.97656 3.51562 5.76562L10.5469 1.61719C10.7578 1.47656 10.9688 1.40625 11.25 1.40625C11.5312 1.40625 11.7422 1.47656 11.9531 1.61719L18.9844 5.76562C19.4062 6.04688 19.6875 6.46875 19.6875 6.96094V11.25H18.2812V6.96094L11.25 2.8125L4.21875 6.96094V15.5391L11.6016 19.8984L10.8281 21.0938Z" fill="#687684"/>
</svg>
