<svg width="318" height="390" viewBox="0 0 318 390" fill="none" xmlns="http://www.w3.org/2000/svg">
<path d="M0 122C0 110.954 8.9543 102 20 102H144C146.761 102 149 104.239 149 107V203C149 214.046 140.046 223 129 223H5C2.23858 223 0 220.761 0 218V122Z" fill="#1D9BF0"/>
<path d="M168 107C168 104.239 170.239 102 173 102H297C308.046 102 317 110.954 317 122V218C317 220.761 314.761 223 312 223H188C176.954 223 168 214.046 168 203V107Z" fill="#1D9BF0"/>
<path d="M0 244.902C0 243.299 1.29925 242 2.90196 242H314.098C315.701 242 317 243.299 317 244.902C317 325.037 252.037 390 171.902 390H145.098C64.9626 390 0 325.037 0 244.902Z" fill="#1D9BF0"/>
<path d="M94.0859 105.677C98.4151 69.3787 66.4991 42.7921 50 34.0361L43.5 45.2945C81.0195 65.1088 82 91 81 105.677L94.0859 105.677Z" fill="#1D9BF0"/>
<path d="M284.042 34C250.442 48.4 243.375 89.3333 244.042 108H257.042C255.442 65.6 277.542 48 289.542 42L284.042 34Z" fill="#1D9BF0"/>
<circle cx="289.542" cy="27.5" r="27.5" fill="#1D9BF0"/>
<circle cx="27.5" cy="27.5" r="27.5" fill="#1D9BF0"/>
</svg>
