<svg width="18" height="20" viewBox="0 0 18 20" fill="none" xmlns="http://www.w3.org/2000/svg">
<path d="M8.2197 19.6252C8.6007 20.1002 9.4007 20.1002 9.7817 19.6252L17.7817 9.62525C17.8991 9.47795 17.9725 9.30065 17.9937 9.11355C18.0148 8.92655 17.9828 8.73724 17.9012 8.56754C17.8197 8.39784 17.6919 8.25465 17.5326 8.15425C17.3733 8.05395 17.189 8.00055 17.0007 8.00025H13.0007L13.0007 1.00014C13.0007 0.734945 12.8953 0.480645 12.7078 0.293045C12.5203 0.105545 12.2659 0.000144958 12.0007 0.000144958L6.0007 0.000144958C5.7355 0.000144958 5.4811 0.105545 5.2936 0.293045C5.1061 0.480645 5.0007 0.734945 5.0007 1.00014L5.0007 8.00025L1.0007 8.00025C0.8124 8.00055 0.6281 8.05395 0.4688 8.15425C0.3095 8.25465 0.181801 8.39784 0.100201 8.56754C0.0186007 8.73724 -0.0134 8.92655 0.00769997 9.11355C0.0289 9.30065 0.1023 9.47795 0.2197 9.62525L8.2197 19.6252ZM6.0007 10.0002H7.0007L7.0007 2.00014L11.0007 2.00014L11.0007 10.0002L14.9197 10.0002L9.0007 17.3992L3.0817 10.0002H6.0007Z" fill="#687684"/>
</svg>
