<svg width="12" height="14" viewBox="0 0 12 14" fill="none" xmlns="http://www.w3.org/2000/svg">
<path d="M11.3338 5.3333L8.66713 5.3333L8.66713 0.666633C8.66713 0.489822 8.5969 0.320252 8.47187 0.195228C8.34685 0.0702039 8.17728 -3.34577e-05 8.00047 -3.34577e-05L4.00047 -3.34577e-05C3.82366 -3.34577e-05 3.65409 0.0702039 3.52906 0.195228C3.40404 0.320252 3.3338 0.489822 3.3338 0.666633L3.3338 5.3333L0.667134 5.3333C0.541623 5.33351 0.418717 5.36912 0.312526 5.43603C0.206336 5.50293 0.121167 5.59843 0.0667975 5.71156C0.0124284 5.82468 -0.00893662 5.95084 0.00515584 6.07556C0.0192483 6.20028 0.0682266 6.31849 0.146467 6.41663L5.4798 13.0833C5.7338 13.4 6.26713 13.4 6.52113 13.0833L11.8545 6.41663C11.9327 6.31849 11.9817 6.20028 11.9958 6.07556C12.0099 5.95084 11.9885 5.82468 11.9341 5.71156C11.8798 5.59843 11.7946 5.50293 11.6884 5.43603C11.5822 5.36912 11.4593 5.33351 11.3338 5.3333Z" fill="#9747FF"/>
</svg>
