<svg width="18" height="20" viewBox="0 0 18 20" fill="none" xmlns="http://www.w3.org/2000/svg">
<path d="M17.9003 8.566C17.8185 8.3965 17.6906 8.25348 17.5312 8.15337C17.3719 8.05326 17.1875 8.0001 16.9993 8H12.9993V1C12.9993 0.734784 12.8939 0.48043 12.7064 0.292893C12.5189 0.105357 12.2645 0 11.9993 0H5.9993C5.73408 0 5.47973 0.105357 5.29219 0.292893C5.10466 0.48043 4.9993 0.734784 4.9993 1V8H0.999298C0.811032 8.00032 0.626672 8.05373 0.467386 8.15409C0.3081 8.25445 0.180347 8.3977 0.0987929 8.56738C0.0172391 8.73707 -0.0148084 8.92631 0.00633031 9.11339C0.027469 9.30047 0.100937 9.47779 0.218298 9.625L8.2183 19.625C8.31198 19.7422 8.43082 19.8367 8.56601 19.9017C8.70121 19.9667 8.84929 20.0005 8.9993 20.0005C9.1493 20.0005 9.29739 19.9667 9.43258 19.9017C9.56778 19.8367 9.68662 19.7422 9.7803 19.625L17.7803 9.625C18.0203 9.324 18.0663 8.913 17.9003 8.566ZM8.9993 17.399L3.0803 10H6.9993V2H10.9993V10H14.9183L8.9993 17.399Z" fill="#9378D8"/>
</svg>
