<svg width="15" height="15" viewBox="0 0 15 15" fill="none" xmlns="http://www.w3.org/2000/svg">
<path d="M7.01231 13.5156C7.25044 13.8125 7.75044 13.8125 7.98856 13.5156L12.9886 7.26563C13.0619 7.17362 13.1078 7.06279 13.121 6.94587C13.1343 6.82895 13.1142 6.71067 13.0633 6.60462C13.0123 6.49856 12.9324 6.40903 12.8329 6.34631C12.7333 6.28358 12.6181 6.2502 12.5004 6.25H10.0004L10.0004 1.875C10.0004 1.70924 9.93459 1.55027 9.81738 1.43306C9.70017 1.31585 9.5412 1.25 9.37544 1.25L5.62544 1.25C5.45968 1.25 5.30071 1.31585 5.1835 1.43306C5.06629 1.55027 5.00044 1.70924 5.00044 1.875V6.25H2.50044C2.38277 6.2502 2.26755 6.28358 2.16799 6.34631C2.06844 6.40903 1.98859 6.49856 1.93762 6.60462C1.88665 6.71067 1.86662 6.82895 1.87983 6.94587C1.89305 7.06279 1.93896 7.17362 2.01231 7.26563L7.01231 13.5156ZM5.62544 7.5H6.25044L6.25044 2.5H8.75044L8.75044 7.5L11.1998 7.5L7.50044 12.1244L3.80106 7.5H5.62544Z" fill="#687684"/>
</svg>
