<svg width="25" height="25" viewBox="0 0 25 25" fill="none" xmlns="http://www.w3.org/2000/svg">
<path d="M12.5 25C10.0277 25 7.61099 24.2669 5.55538 22.8934C3.49976 21.5199 1.89761 19.5676 0.951511 17.2835C0.00541604 14.9995 -0.242126 12.4861 0.24019 10.0614C0.722505 7.63661 1.91301 5.40933 3.66117 3.66117C5.40933 1.91301 7.63661 0.722505 10.0614 0.24019C12.4861 -0.242126 14.9995 0.00541604 17.2835 0.951511C19.5676 1.89761 21.5199 3.49976 22.8934 5.55538C24.2669 7.61099 25 10.0277 25 12.5C24.9962 15.814 23.678 18.9913 21.3347 21.3347C18.9913 23.678 15.814 24.9962 12.5 25V25ZM12.5 1.78572C10.3809 1.78572 8.30942 2.4141 6.54747 3.5914C4.78551 4.7687 3.41223 6.44205 2.6013 8.39982C1.79036 10.3576 1.57818 12.5119 1.99159 14.5903C2.405 16.6686 3.42544 18.5777 4.92386 20.0761C6.42228 21.5746 8.33138 22.595 10.4098 23.0084C12.4881 23.4218 14.6424 23.2096 16.6002 22.3987C18.558 21.5878 20.2313 20.2145 21.4086 18.4525C22.5859 16.6906 23.2143 14.6191 23.2143 12.5C23.211 9.65941 22.0811 6.93612 20.0725 4.92751C18.0639 2.91891 15.3406 1.78903 12.5 1.78572V1.78572Z" fill="white"/>
<path d="M18.7488 5.27218C18.6363 5.15024 18.4947 5.06463 18.3398 5.02494C18.1849 4.98525 18.0229 4.99305 17.8719 5.04747L10.1579 7.83309C10.0316 7.87872 9.91678 7.95559 9.82261 8.05761C9.72844 8.15962 9.65748 8.28399 9.61536 8.42086L7.04402 16.7777C6.99366 16.9413 6.98635 17.1169 7.02292 17.2847C7.05948 17.4526 7.13847 17.6061 7.25104 17.728C7.36361 17.85 7.50531 17.9356 7.66025 17.9752C7.81519 18.0148 7.97725 18.0069 8.12827 17.9523L15.8423 15.1667C15.9686 15.1211 16.0834 15.0442 16.1776 14.9422C16.2718 14.8402 16.3427 14.7158 16.3848 14.5789L18.9562 6.22208C19.0064 6.05849 19.0136 5.88299 18.977 5.71522C18.9403 5.54745 18.8613 5.39404 18.7488 5.27218V5.27218ZM9.21252 15.604L11.1067 9.44968L14.8943 13.5529L9.21252 15.604Z" fill="white"/>
</svg>
