<svg width="25" height="25" viewBox="0 0 25 25" fill="none" xmlns="http://www.w3.org/2000/svg">
<path d="M24.4816 12.2993L13.8264 1.02343L13.1122 0.267226C12.9495 0.0960633 12.7294 0 12.5 0C12.2707 0 12.0506 0.0960633 11.8879 0.267226L0.518532 12.2993C0.351787 12.4752 0.220005 12.6846 0.130966 12.9153C0.0419262 13.146 -0.00256625 13.3932 0.000114299 13.6424C0.0111445 14.6701 0.819104 15.4905 1.78976 15.4905H2.96171V25H22.0384V15.4905H23.2352C23.7067 15.4905 24.1507 15.2949 24.4843 14.9416C24.6486 14.7682 24.7788 14.5621 24.8673 14.335C24.9558 14.108 25.0009 13.8646 25 13.619C25 13.1227 24.8152 12.6526 24.4816 12.2993ZM14.0443 22.8978H10.9558V16.9416H14.0443V22.8978ZM20.053 13.3884V22.8978H15.8091V16.2409C15.8091 15.5956 15.3155 15.073 14.7061 15.073H10.294C9.6846 15.073 9.191 15.5956 9.191 16.2409V22.8978H4.94714V13.3884H2.2999L12.5028 2.59423L13.1398 3.26868L22.703 13.3884H20.053Z" fill="#FCFCFC"/>
</svg>
