<svg width="102" height="99" viewBox="0 0 102 99" fill="none" xmlns="http://www.w3.org/2000/svg">
<path d="M50.7386 63.5844C49.7357 63.5844 25.932 63.3763 7.72354 45.1611C7.33801 44.7789 6.96273 44.3901 6.59425 44.0012C2.77994 39.9821 0.971716 35.1988 1.35383 30.1734C1.695 25.7381 3.74204 21.4427 7.1026 18.072C10.4632 14.7011 14.7722 12.6609 19.2039 12.3233C23.8474 11.982 28.2861 13.4901 32.1107 16.7312C32.5234 11.7364 34.5842 7.5195 38.1187 4.48984C41.4928 1.59326 45.9656 0 50.7422 0C55.5186 0 59.9914 1.59326 63.3654 4.48984C66.8966 7.52287 68.9608 11.7364 69.3735 16.7312C73.1981 13.4901 77.6368 11.9546 82.2801 12.3233C86.7154 12.6643 91.0108 14.7114 94.3781 18.072C97.7456 21.4326 99.7926 25.7415 100.127 30.1734C100.512 35.1988 98.7007 39.9821 94.89 44.0079C94.5214 44.3968 94.1462 44.7859 93.7607 45.168C75.5488 63.3763 51.7451 63.5844 50.7386 63.5844ZM20.5209 16.0523C16.3928 16.0523 12.517 17.973 9.76034 20.7263C4.80649 25.6836 2.55477 34.2743 9.32363 41.4287C9.66936 41.7949 10.0219 42.1577 10.3813 42.5169C27.5014 59.6336 50.5134 59.8316 50.7422 59.8316C50.9707 59.8316 74.0306 59.5927 91.1062 42.5169C91.4679 42.1554 91.8204 41.7926 92.1639 41.4287C98.9329 34.2641 96.681 25.6836 91.7272 20.7263C86.7735 15.7689 78.1792 13.5173 71.0147 20.2896C70.6485 20.6331 70.2857 20.9856 69.9262 21.3473C69.6499 21.6236 69.3804 21.9068 69.1142 22.1899L65.5558 25.9633L65.6957 20.7842C65.6957 20.3886 65.7197 19.9961 65.7197 19.5969C65.7197 19.0853 65.7197 18.5736 65.6991 18.0788C65.4262 8.23594 57.7599 3.74949 50.7489 3.74949C43.7377 3.74949 36.0784 8.23256 35.8022 18.0788C35.8022 18.5803 35.7816 19.1023 35.7816 19.5969C35.7816 19.986 35.7816 20.3681 35.8022 20.7536L35.9421 25.9633L32.3801 22.2103C32.1107 21.9238 31.8377 21.6371 31.5579 21.354C31.1962 20.9923 30.8334 20.6398 30.4695 20.2963C27.2795 17.2702 23.8166 16.0523 20.5209 16.0523Z" fill="#00501E"/>
<path d="M48.3338 43.7076H45.6044C45.6044 39.6441 41.6468 36.3347 36.7885 36.3347C31.9302 36.3347 27.9726 39.6441 27.9726 43.7076H25.2432C25.2432 38.1362 30.4221 33.6055 36.7885 33.6055C43.1547 33.6055 48.3338 38.1362 48.3338 43.7076Z" fill="#00501E"/>
<path d="M76.0853 43.5948H73.3558C73.3558 39.5315 69.4016 36.2255 64.5399 36.2255C59.6783 36.2255 55.7241 39.5315 55.7241 43.5948H52.9946C52.9946 38.027 58.1736 33.4961 64.5399 33.4961C70.9061 33.4961 76.0853 38.027 76.0853 43.5948Z" fill="#00501E"/>
<path d="M39.9307 43.7654C42.0995 43.7654 43.8577 42.0074 43.8577 39.8386C43.8577 37.6698 42.0995 35.9116 39.9307 35.9116C37.7619 35.9116 36.0039 37.6698 36.0039 39.8386C36.0039 42.0074 37.7619 43.7654 39.9307 43.7654Z" fill="#00501E"/>
<path d="M67.4973 43.7654C69.6659 43.7654 71.4241 42.0074 71.4241 39.8386C71.4241 37.6698 69.6659 35.9116 67.4973 35.9116C65.3285 35.9116 63.5703 37.6698 63.5703 39.8386C63.5703 42.0074 65.3285 43.7654 67.4973 43.7654Z" fill="#00501E"/>
<path d="M50.7288 53.7414C47.5117 53.7414 44.5297 52.0867 43.1377 49.5279L45.5261 48.2246C46.4506 49.9305 48.4874 51.012 50.7221 51.012C52.9567 51.012 54.9969 49.9168 55.9181 48.2246L58.3063 49.5279C56.9279 52.0867 53.9564 53.7414 50.7288 53.7414Z" fill="#00501E"/>
<path d="M99.6431 91.5748C92.8039 94.7773 85.0946 95.6173 77.7261 93.963C71.6271 92.6107 66.0279 89.5796 61.5613 85.212C64.389 86.3839 67.4222 86.9799 70.4829 86.9657C75.7753 86.9668 80.937 85.3213 85.2523 82.2574L83.0621 79.2073C77.1564 83.4583 69.033 84.4819 62.6224 81.5854C56.2971 78.7365 52.7284 72.6397 52.4998 64.3731V61.7085H48.7468V62.1793V64.3526C48.5285 72.6294 44.9529 78.7331 38.6209 81.5854C32.2102 84.4751 24.0731 83.4652 18.1811 79.1972L15.9942 82.2473C20.3068 85.3123 25.4659 86.9601 30.7567 86.9621C33.8177 86.9771 36.8509 86.3811 39.6784 85.2086C35.2131 89.5761 29.6151 92.6074 23.517 93.9596C16.1486 95.6141 8.43929 94.7741 1.6001 91.5714L0 94.9661C5.02264 97.3237 10.5038 98.5434 16.0522 98.5382C18.84 98.5391 21.6193 98.2314 24.3394 97.6204C32.6857 95.7675 40.1417 91.1025 45.4579 84.4069L45.4819 84.3761C46.7293 82.7396 47.8245 80.9923 48.7537 79.1561V98.4699H52.5066V79.1835C53.4343 81.0105 54.5261 82.7497 55.7681 84.3795L55.7921 84.4102C61.1077 91.1049 68.5624 95.7699 76.9072 97.6239C79.6273 98.2348 82.4066 98.5427 85.1944 98.5416C90.744 98.5468 96.2261 97.3271 101.25 94.9695L99.6431 91.5748Z" fill="#00501E"/>
</svg>
