<svg width="16" height="16" viewBox="0 0 16 16" fill="none" xmlns="http://www.w3.org/2000/svg">
<path d="M15.6129 3.27888C15.3646 2.63724 15.0067 2.0558 14.5591 1.56709C14.1111 1.07693 13.583 0.6874 13.0033 0.419693C12.4023 0.140996 11.7577 -0.0016576 11.1068 1.45314e-05C10.1938 1.45314e-05 9.30292 0.279111 8.52875 0.806293C8.34355 0.932404 8.1676 1.07092 8.00092 1.22184C7.83423 1.07092 7.65828 0.932404 7.47308 0.806293C6.69892 0.279111 5.80807 1.45314e-05 4.895 1.45314e-05C4.23752 1.45314e-05 3.60041 0.140597 2.99849 0.419693C2.41694 0.688453 1.89281 1.07505 1.44276 1.56709C0.994552 2.05524 0.636513 2.63683 0.388933 3.27888C0.131497 3.94665 0 4.65576 0 5.38554C0 6.07398 0.12594 6.79136 0.375969 7.52115C0.585252 8.13103 0.885287 8.76365 1.26866 9.40247C1.87614 10.4134 2.71142 11.4678 3.74858 12.5366C5.46729 14.3084 7.16934 15.5323 7.24157 15.5819L7.68051 15.8961C7.87498 16.0346 8.12501 16.0346 8.31947 15.8961L8.75841 15.5819C8.83064 15.5302 10.5308 14.3084 12.2514 12.5366C13.2886 11.4678 14.1238 10.4134 14.7313 9.40247C15.1147 8.76365 15.4166 8.13103 15.624 7.52115C15.874 6.79136 16 6.07398 16 5.38554C16.0018 4.65576 15.8703 3.94665 15.6129 3.27888V3.27888Z" fill="#1D9BF0"/>
</svg>
