<svg width="23" height="23" viewBox="0 0 23 23" fill="none" xmlns="http://www.w3.org/2000/svg">
<path d="M5.625 19.9375C5.10937 19.9375 4.66812 19.7541 4.30125 19.3872C3.93375 19.0197 3.75 18.5781 3.75 18.0625V9.625C3.75 9.32812 3.81656 9.04688 3.94969 8.78125C4.08219 8.51563 4.26563 8.29687 4.5 8.125L10.125 3.90625C10.2969 3.78125 10.4766 3.6875 10.6641 3.625C10.8516 3.5625 11.0469 3.53125 11.25 3.53125C11.4531 3.53125 11.6484 3.5625 11.8359 3.625C12.0234 3.6875 12.2031 3.78125 12.375 3.90625L18 8.125C18.2344 8.29687 18.4181 8.51563 18.5512 8.78125C18.6837 9.04688 18.75 9.32812 18.75 9.625V18.0625C18.75 18.5781 18.5666 19.0197 18.1997 19.3872C17.8322 19.7541 17.3906 19.9375 16.875 19.9375H13.125V13.375H9.375V19.9375H5.625Z" fill="#9378D8"/>
</svg>
