<svg width="23" height="23" viewBox="0 0 23 23" fill="none" xmlns="http://www.w3.org/2000/svg">
<g clip-path="url(#clip0_1712_3521)">
<path d="M12.375 2.48438C12.0504 2.24096 11.6557 2.10938 11.25 2.10938C10.8443 2.10938 10.4496 2.24096 10.125 2.48438L3.5625 7.40625C3.32963 7.5809 3.14063 7.80737 3.01045 8.06772C2.88027 8.32808 2.8125 8.61517 2.8125 8.90625V17.8125C2.8125 18.3098 3.01004 18.7867 3.36167 19.1383C3.71331 19.49 4.19022 19.6875 4.6875 19.6875H8.34375C8.61725 19.6875 8.87956 19.5789 9.07295 19.3855C9.26635 19.1921 9.375 18.9298 9.375 18.6562V14.0625C9.375 13.5652 9.57254 13.0883 9.92418 12.7367C10.2758 12.385 10.7527 12.1875 11.25 12.1875C11.7473 12.1875 12.2242 12.385 12.5758 12.7367C12.9275 13.0883 13.125 13.5652 13.125 14.0625V18.6562C13.125 18.9298 13.2336 19.1921 13.427 19.3855C13.6204 19.5789 13.8827 19.6875 14.1563 19.6875H17.8125C18.3098 19.6875 18.7867 19.49 19.1383 19.1383C19.49 18.7867 19.6875 18.3098 19.6875 17.8125V8.90625C19.6875 8.61517 19.6197 8.32808 19.4896 8.06772C19.3594 7.80737 19.1704 7.5809 18.9375 7.40625L12.375 2.48438Z" fill="#6668FF"/>
</g>
<defs>
<clipPath id="clip0_1712_3521">
<rect width="22.5" height="22.5" fill="white"/>
</clipPath>
</defs>
</svg>
