<svg width="24" height="23" viewBox="0 0 24 23" fill="none" xmlns="http://www.w3.org/2000/svg">
<g clip-path="url(#clip0_1585_2976)">
<path fill-rule="evenodd" clip-rule="evenodd" d="M11 2.73438C11.3246 2.49096 11.7193 2.35937 12.125 2.35938C12.5307 2.35938 12.9254 2.49096 13.25 2.73438L19.8125 7.65625C20.0454 7.8309 20.2344 8.05737 20.3646 8.31772C20.4947 8.57808 20.5625 8.86517 20.5625 9.15625V18.0625C20.5625 18.5598 20.365 19.0367 20.0133 19.3883C19.6617 19.74 19.1848 19.9375 18.6875 19.9375H14.0938C13.8202 19.9375 13.5579 19.8289 13.3645 19.6355C13.1711 19.4421 13.0625 19.1798 13.0625 18.9062V13.375C13.0625 13.1264 12.9637 12.8879 12.7879 12.7121C12.6121 12.5363 12.3736 12.4375 12.125 12.4375C11.8764 12.4375 11.6379 12.5363 11.4621 12.7121C11.2863 12.8879 11.1875 13.1264 11.1875 13.375V18.9062C11.1875 19.0417 11.1608 19.1758 11.109 19.3009C11.0572 19.426 10.9812 19.5397 10.8855 19.6355C10.7897 19.7312 10.676 19.8072 10.5509 19.859C10.4258 19.9108 10.2917 19.9375 10.1562 19.9375H5.5625C5.06522 19.9375 4.58831 19.74 4.23667 19.3883C3.88504 19.0367 3.6875 18.5598 3.6875 18.0625V9.15625C3.6875 8.86517 3.75527 8.57808 3.88545 8.31772C4.01563 8.05737 4.20463 7.8309 4.4375 7.65625L11 2.73438ZM12.125 4.23438L5.5625 9.15625V18.0625H9.3125V13.375C9.3125 12.6291 9.60882 11.9137 10.1363 11.3863C10.6637 10.8588 11.3791 10.5625 12.125 10.5625C12.8709 10.5625 13.5863 10.8588 14.1137 11.3863C14.6412 11.9137 14.9375 12.6291 14.9375 13.375V18.0625H18.6875V9.15625L12.125 4.23438Z" fill="#687684"/>
</g>
<defs>
<clipPath id="clip0_1585_2976">
<rect width="22.5" height="22.5" fill="white" transform="translate(0.875 0.25)"/>
</clipPath>
</defs>
</svg>
