<svg width="23" height="23" viewBox="0 0 23 23" fill="none" xmlns="http://www.w3.org/2000/svg">
<g clip-path="url(#clip0_1590_3141)">
<path fill-rule="evenodd" clip-rule="evenodd" d="M10.125 2.48438C10.4496 2.24096 10.8443 2.10937 11.25 2.10938C11.6557 2.10938 12.0504 2.24096 12.375 2.48438L18.9375 7.40625C19.1704 7.5809 19.3594 7.80737 19.4896 8.06772C19.6197 8.32808 19.6875 8.61517 19.6875 8.90625V17.8125C19.6875 18.3098 19.49 18.7867 19.1383 19.1383C18.7867 19.49 18.3098 19.6875 17.8125 19.6875H13.2188C12.9452 19.6875 12.6829 19.5789 12.4895 19.3855C12.2961 19.1921 12.1875 18.9298 12.1875 18.6562V13.125C12.1875 12.8764 12.0887 12.6379 11.9129 12.4621C11.7371 12.2863 11.4986 12.1875 11.25 12.1875C11.0014 12.1875 10.7629 12.2863 10.5871 12.4621C10.4113 12.6379 10.3125 12.8764 10.3125 13.125V18.6562C10.3125 18.7917 10.2858 18.9258 10.234 19.0509C10.1822 19.176 10.1062 19.2897 10.0105 19.3855C9.91469 19.4812 9.80101 19.5572 9.67589 19.609C9.55077 19.6608 9.41668 19.6875 9.28125 19.6875H4.6875C4.19022 19.6875 3.71331 19.49 3.36167 19.1383C3.01004 18.7867 2.8125 18.3098 2.8125 17.8125V8.90625C2.8125 8.61517 2.88027 8.32808 3.01045 8.06772C3.14063 7.80737 3.32963 7.5809 3.5625 7.40625L10.125 2.48438V2.48438ZM11.25 3.98438L4.6875 8.90625V17.8125H8.4375V13.125C8.4375 12.3791 8.73382 11.6637 9.26126 11.1363C9.78871 10.6088 10.5041 10.3125 11.25 10.3125C11.9959 10.3125 12.7113 10.6088 13.2387 11.1363C13.7662 11.6637 14.0625 12.3791 14.0625 13.125V17.8125H17.8125V8.90625L11.25 3.98438Z" fill="#6668FF"/>
</g>
<defs>
<clipPath id="clip0_1590_3141">
<rect width="22.5" height="22.5" fill="white"/>
</clipPath>
</defs>
</svg>
