<svg width="23" height="23" viewBox="0 0 23 23" fill="none" xmlns="http://www.w3.org/2000/svg">
<path d="M7.46094 16.2578L13.3203 13.5156C13.4141 13.4688 13.5 13.4062 13.5781 13.3281C13.6562 13.25 13.7188 13.1641 13.7656 13.0703L16.5078 7.21094C16.5703 7.07031 16.5431 6.94125 16.4263 6.82375C16.3088 6.70687 16.1797 6.67969 16.0391 6.74219L10.1797 9.48438C10.0859 9.53125 10 9.59375 9.92188 9.67188C9.84375 9.75 9.78125 9.83594 9.73438 9.92969L6.99219 15.7891C6.92969 15.9297 6.95719 16.0588 7.07469 16.1763C7.19156 16.2931 7.32031 16.3203 7.46094 16.2578ZM11.75 12.4375C11.4844 12.4375 11.2619 12.3475 11.0825 12.1675C10.9025 11.9881 10.8125 11.7656 10.8125 11.5C10.8125 11.2344 10.9025 11.0116 11.0825 10.8316C11.2619 10.6522 11.4844 10.5625 11.75 10.5625C12.0156 10.5625 12.2384 10.6522 12.4184 10.8316C12.5978 11.0116 12.6875 11.2344 12.6875 11.5C12.6875 11.7656 12.5978 11.9881 12.4184 12.1675C12.2384 12.3475 12.0156 12.4375 11.75 12.4375ZM11.75 20.875C10.4531 20.875 9.23438 20.6287 8.09375 20.1362C6.95313 19.6444 5.96094 18.9766 5.11719 18.1328C4.27344 17.2891 3.60563 16.2969 3.11375 15.1562C2.62125 14.0156 2.375 12.7969 2.375 11.5C2.375 10.2031 2.62125 8.98438 3.11375 7.84375C3.60563 6.70313 4.27344 5.71094 5.11719 4.86719C5.96094 4.02344 6.95313 3.35531 8.09375 2.86281C9.23438 2.37094 10.4531 2.125 11.75 2.125C13.0469 2.125 14.2656 2.37094 15.4062 2.86281C16.5469 3.35531 17.5391 4.02344 18.3828 4.86719C19.2266 5.71094 19.8944 6.70313 20.3862 7.84375C20.8787 8.98438 21.125 10.2031 21.125 11.5C21.125 12.7969 20.8787 14.0156 20.3862 15.1562C19.8944 16.2969 19.2266 17.2891 18.3828 18.1328C17.5391 18.9766 16.5469 19.6444 15.4062 20.1362C14.2656 20.6287 13.0469 20.875 11.75 20.875Z" fill="#9378D8"/>
</svg>
