<svg width="24" height="19" viewBox="0 0 24 19" fill="none" xmlns="http://www.w3.org/2000/svg">
<g clip-path="url(#clip0_1585_2984)">
<path d="M20.975 16.7844C20.3723 16.2471 19.8447 15.6311 19.4062 14.9531C18.9276 14.0172 18.6408 12.9951 18.5625 11.9469V8.85938C18.5666 7.21288 17.9694 5.62155 16.883 4.38436C15.7965 3.14717 14.2957 2.34929 12.6625 2.14063V1.33438C12.6625 1.11308 12.5746 0.900859 12.4181 0.744383C12.2616 0.587907 12.0494 0.5 11.8281 0.5C11.6068 0.5 11.3946 0.587907 11.2381 0.744383C11.0817 0.900859 10.9938 1.11308 10.9938 1.33438V2.15313C9.37516 2.37683 7.89248 3.17954 6.82033 4.41257C5.74818 5.6456 5.15921 7.2254 5.1625 8.85938V11.9469C5.08422 12.9951 4.79736 14.0172 4.31875 14.9531C3.88805 15.6296 3.36887 16.2455 2.775 16.7844C2.70833 16.8429 2.6549 16.915 2.61826 16.9959C2.58162 17.0767 2.56261 17.1644 2.5625 17.2531V18.1031C2.5625 18.2689 2.62835 18.4279 2.74556 18.5451C2.86277 18.6623 3.02174 18.7281 3.1875 18.7281H20.5625C20.7283 18.7281 20.8872 18.6623 21.0044 18.5451C21.1217 18.4279 21.1875 18.2689 21.1875 18.1031V17.2531C21.1874 17.1644 21.1684 17.0767 21.1317 16.9959C21.0951 16.915 21.0417 16.8429 20.975 16.7844ZM3.8625 17.4781C4.44401 16.9164 4.956 16.2869 5.3875 15.6031C5.99038 14.4728 6.34214 13.2256 6.41875 11.9469V8.85938C6.39396 8.1269 6.51683 7.39692 6.78003 6.71292C7.04323 6.02891 7.44138 5.40487 7.95078 4.87794C8.46018 4.35101 9.0704 3.93198 9.74511 3.6458C10.4198 3.35961 11.1452 3.21213 11.8781 3.21213C12.611 3.21213 13.3364 3.35961 14.0111 3.6458C14.6858 3.93198 15.2961 4.35101 15.8055 4.87794C16.3149 5.40487 16.713 6.02891 16.9762 6.71292C17.2394 7.39692 17.3623 8.1269 17.3375 8.85938V11.9469C17.4141 13.2256 17.7659 14.4728 18.3688 15.6031C18.8003 16.2869 19.3122 16.9164 19.8938 17.4781H3.8625Z" fill="#687684"/>
</g>
<defs>
<clipPath id="clip0_1585_2984">
<rect width="22.5" height="18" fill="white" transform="translate(0.625 0.5)"/>
</clipPath>
</defs>
</svg>
