<svg width="23" height="23" viewBox="0 0 23 23" fill="none" xmlns="http://www.w3.org/2000/svg">
<g clip-path="url(#clip0_1819_3849)">
<path d="M20.5312 17.8312L20.3187 17.6437C19.7159 17.1066 19.1882 16.4907 18.75 15.8125C18.2714 14.8766 17.9845 13.8545 17.9062 12.8063V9.71875C17.9104 8.07226 17.3131 6.48092 16.2267 5.24373C15.1403 4.00654 13.6395 3.20866 12.0063 3V2.19375C12.0063 1.97246 11.9183 1.76023 11.7619 1.60376C11.6054 1.44728 11.3932 1.35938 11.1719 1.35938C10.9506 1.35938 10.7384 1.44728 10.5819 1.60376C10.4254 1.76023 10.3375 1.97246 10.3375 2.19375V3.0125C8.71891 3.2362 7.23623 4.03891 6.16408 5.27194C5.09193 6.50497 4.50296 8.08478 4.50625 9.71875V12.8063C4.42797 13.8545 4.14111 14.8766 3.6625 15.8125C3.2318 16.489 2.71262 17.1048 2.11875 17.6437L1.90625 17.8312V19.5938H20.5312V17.8312Z" fill="#9378D8"/>
</g>
<defs>
<clipPath id="clip0_1819_3849">
<rect width="22.5" height="22.5" fill="white" transform="translate(0 0.25)"/>
</clipPath>
</defs>
</svg>
