<svg width="24" height="23" viewBox="0 0 24 23" fill="none" xmlns="http://www.w3.org/2000/svg">
<path d="M6.59375 16.6563L13.625 13.375L16.9063 6.34375L9.875 9.625L6.59375 16.6563ZM11.75 12.4375C11.4844 12.4375 11.2619 12.3475 11.0825 12.1675C10.9025 11.9881 10.8125 11.7656 10.8125 11.5C10.8125 11.2344 10.9025 11.0116 11.0825 10.8316C11.2619 10.6522 11.4844 10.5625 11.75 10.5625C12.0156 10.5625 12.2384 10.6522 12.4184 10.8316C12.5978 11.0116 12.6875 11.2344 12.6875 11.5C12.6875 11.7656 12.5978 11.9881 12.4184 12.1675C12.2384 12.3475 12.0156 12.4375 11.75 12.4375ZM11.75 20.875C10.4531 20.875 9.23438 20.6288 8.09375 20.1363C6.95313 19.6444 5.96094 18.9766 5.11719 18.1328C4.27344 17.2891 3.60563 16.2969 3.11375 15.1563C2.62125 14.0156 2.375 12.7969 2.375 11.5C2.375 10.2031 2.62125 8.98438 3.11375 7.84375C3.60563 6.70313 4.27344 5.71094 5.11719 4.86719C5.96094 4.02344 6.95313 3.35531 8.09375 2.86281C9.23438 2.37094 10.4531 2.125 11.75 2.125C13.0469 2.125 14.2656 2.37094 15.4063 2.86281C16.5469 3.35531 17.5391 4.02344 18.3828 4.86719C19.2266 5.71094 19.8944 6.70313 20.3863 7.84375C20.8788 8.98438 21.125 10.2031 21.125 11.5C21.125 12.7969 20.8788 14.0156 20.3863 15.1563C19.8944 16.2969 19.2266 17.2891 18.3828 18.1328C17.5391 18.9766 16.5469 19.6444 15.4063 20.1363C14.2656 20.6288 13.0469 20.875 11.75 20.875ZM11.75 19C13.8438 19 15.6172 18.2734 17.0703 16.8203C18.5234 15.3672 19.25 13.5938 19.25 11.5C19.25 9.40625 18.5234 7.63281 17.0703 6.17969C15.6172 4.72656 13.8438 4 11.75 4C9.65625 4 7.88281 4.72656 6.42969 6.17969C4.97656 7.63281 4.25 9.40625 4.25 11.5C4.25 13.5938 4.97656 15.3672 6.42969 16.8203C7.88281 18.2734 9.65625 19 11.75 19Z" fill="#687684"/>
</svg>
