<svg width="23" height="23" viewBox="0 0 23 23" fill="none" xmlns="http://www.w3.org/2000/svg">
<g clip-path="url(#clip0_1712_3517)">
<path d="M20.9062 17.8312L20.6937 17.6437C20.0909 17.1066 19.5632 16.4907 19.125 15.8125C18.6464 14.8766 18.3595 13.8545 18.2812 12.8063V9.71875C18.2854 8.07226 17.6881 6.48092 16.6017 5.24373C15.5153 4.00654 14.0145 3.20866 12.3813 3V2.19375C12.3813 1.97246 12.2933 1.76023 12.1369 1.60376C11.9804 1.44728 11.7682 1.35938 11.5469 1.35938C11.3256 1.35938 11.1134 1.44728 10.9569 1.60376C10.8004 1.76023 10.7125 1.97246 10.7125 2.19375V3.0125C9.09391 3.2362 7.61123 4.03891 6.53908 5.27194C5.46693 6.50497 4.87796 8.08478 4.88125 9.71875V12.8063C4.80297 13.8545 4.51611 14.8766 4.0375 15.8125C3.6068 16.489 3.08762 17.1048 2.49375 17.6437L2.28125 17.8312V19.5938H20.9062V17.8312Z" fill="#6668FF"/>
</g>
<defs>
<clipPath id="clip0_1712_3517">
<rect width="22.5" height="22.5" fill="white" transform="translate(0.375 0.25)"/>
</clipPath>
</defs>
</svg>
