<svg width="20" height="20" viewBox="0 0 20 20" fill="none" xmlns="http://www.w3.org/2000/svg">
<path d="M5.96094 15.0078L11.8203 12.2656C11.9141 12.2187 12 12.1562 12.0781 12.0781C12.1562 12 12.2187 11.9141 12.2656 11.8203L15.0078 5.96094C15.0703 5.82031 15.0431 5.69125 14.9263 5.57375C14.8088 5.45688 14.6797 5.42969 14.5391 5.49219L8.67969 8.23438C8.58594 8.28125 8.5 8.34375 8.42188 8.42188C8.34375 8.5 8.28125 8.58594 8.23438 8.67969L5.49219 14.5391C5.42969 14.6797 5.45719 14.8088 5.57469 14.9263C5.69156 15.0431 5.82031 15.0703 5.96094 15.0078ZM10.25 11.1875C9.98438 11.1875 9.76188 11.0975 9.5825 10.9175C9.4025 10.7381 9.3125 10.5156 9.3125 10.25C9.3125 9.98438 9.4025 9.76156 9.5825 9.58156C9.76188 9.40219 9.98438 9.3125 10.25 9.3125C10.5156 9.3125 10.7384 9.40219 10.9184 9.58156C11.0978 9.76156 11.1875 9.98438 11.1875 10.25C11.1875 10.5156 11.0978 10.7381 10.9184 10.9175C10.7384 11.0975 10.5156 11.1875 10.25 11.1875ZM10.25 19.625C8.95313 19.625 7.73438 19.3787 6.59375 18.8862C5.45313 18.3944 4.46094 17.7266 3.61719 16.8828C2.77344 16.0391 2.10563 15.0469 1.61375 13.9062C1.12125 12.7656 0.875 11.5469 0.875 10.25C0.875 8.95313 1.12125 7.73438 1.61375 6.59375C2.10563 5.45313 2.77344 4.46094 3.61719 3.61719C4.46094 2.77344 5.45313 2.10531 6.59375 1.61281C7.73438 1.12094 8.95313 0.875 10.25 0.875C11.5469 0.875 12.7656 1.12094 13.9062 1.61281C15.0469 2.10531 16.0391 2.77344 16.8828 3.61719C17.7266 4.46094 18.3944 5.45313 18.8862 6.59375C19.3787 7.73438 19.625 8.95313 19.625 10.25C19.625 11.5469 19.3787 12.7656 18.8862 13.9062C18.3944 15.0469 17.7266 16.0391 16.8828 16.8828C16.0391 17.7266 15.0469 18.3944 13.9062 18.8862C12.7656 19.3787 11.5469 19.625 10.25 19.625Z" fill="#6668FF"/>
</svg>
