<svg width="23" height="23" viewBox="0 0 23 23" fill="none" xmlns="http://www.w3.org/2000/svg">
<path d="M18.0312 19.4805L12.7812 14.2305C12.3125 14.6055 11.7734 14.9023 11.1641 15.1211C10.5547 15.3398 9.90625 15.4492 9.21875 15.4492C7.51562 15.4492 6.07437 14.8595 4.895 13.6802C3.715 12.5002 3.125 11.0586 3.125 9.35547C3.125 7.65234 3.715 6.21078 4.895 5.03078C6.07437 3.85141 7.51562 3.26172 9.21875 3.26172C10.9219 3.26172 12.3634 3.85141 13.5434 5.03078C14.7228 6.21078 15.3125 7.65234 15.3125 9.35547C15.3125 10.043 15.2031 10.6914 14.9844 11.3008C14.7656 11.9102 14.4688 12.4492 14.0938 12.918L19.3672 18.1914C19.5391 18.3633 19.625 18.5742 19.625 18.8242C19.625 19.0742 19.5312 19.293 19.3438 19.4805C19.1719 19.6523 18.9531 19.7383 18.6875 19.7383C18.4219 19.7383 18.2031 19.6523 18.0312 19.4805ZM9.21875 13.5742C10.3906 13.5742 11.3869 13.1642 12.2075 12.3442C13.0275 11.5236 13.4375 10.5273 13.4375 9.35547C13.4375 8.18359 13.0275 7.18734 12.2075 6.36672C11.3869 5.54672 10.3906 5.13672 9.21875 5.13672C8.04688 5.13672 7.05062 5.54672 6.23 6.36672C5.41 7.18734 5 8.18359 5 9.35547C5 10.5273 5.41 11.5236 6.23 12.3442C7.05062 13.1642 8.04688 13.5742 9.21875 13.5742Z" fill="#687684"/>
</svg>
