<svg width="24" height="23" viewBox="0 0 24 23" fill="none" xmlns="http://www.w3.org/2000/svg">
<path d="M3.6875 5.17188V16.4219C3.6875 16.7948 3.83566 17.1525 4.09938 17.4162C4.3631 17.68 4.72079 17.8281 5.09375 17.8281H19.1562C19.5292 17.8281 19.8869 17.68 20.1506 17.4162C20.4143 17.1525 20.5625 16.7948 20.5625 16.4219V5.17188H3.6875ZM3.6875 3.76562H20.5625C20.9355 3.76563 21.2931 3.91378 21.5569 4.17751C21.8206 4.44123 21.9688 4.79891 21.9688 5.17188V16.4219C21.9688 17.1678 21.6724 17.8832 21.145 18.4106C20.6175 18.9381 19.9022 19.2344 19.1562 19.2344H5.09375C4.34783 19.2344 3.63246 18.9381 3.10501 18.4106C2.57757 17.8832 2.28125 17.1678 2.28125 16.4219V5.17188C2.28125 4.79891 2.42941 4.44123 2.69313 4.17751C2.95685 3.91378 3.31454 3.76563 3.6875 3.76562Z" fill="#687684"/>
<path d="M20.7383 5.17188L15.3003 11.3875C14.9043 11.8402 14.4162 12.2029 13.8685 12.4515C13.3209 12.7 12.7264 12.8286 12.125 12.8286C11.5236 12.8286 10.9291 12.7 10.3815 12.4515C9.83383 12.2029 9.34566 11.8402 8.94969 11.3875L3.51172 5.17188H20.7383ZM5.38063 5.17188L10.0072 10.4608C10.2712 10.7626 10.5966 11.0045 10.9618 11.1703C11.3269 11.336 11.7233 11.4218 12.1243 11.4218C12.5253 11.4218 12.9217 11.336 13.2868 11.1703C13.6519 11.0045 13.9774 10.7626 14.2414 10.4608L18.8694 5.17188H5.38063Z" fill="#687684"/>
</svg>
