<svg width="25" height="25" viewBox="0 0 25 25" fill="none" xmlns="http://www.w3.org/2000/svg">
<path d="M24 24L18.5696 18.5599L24 24ZM21.5789 11.2895C21.5789 14.0184 20.4949 16.6356 18.5652 18.5652C16.6356 20.4949 14.0184 21.5789 11.2895 21.5789C8.56054 21.5789 5.94337 20.4949 4.01372 18.5652C2.08407 16.6356 1 14.0184 1 11.2895C1 8.56054 2.08407 5.94337 4.01372 4.01372C5.94337 2.08407 8.56054 1 11.2895 1C14.0184 1 16.6356 2.08407 18.5652 4.01372C20.4949 5.94337 21.5789 8.56054 21.5789 11.2895Z" fill="black"/>
<path d="M24 24L18.5696 18.5599M21.5789 11.2895C21.5789 14.0184 20.4949 16.6356 18.5652 18.5652C16.6356 20.4949 14.0184 21.5789 11.2895 21.5789C8.56054 21.5789 5.94337 20.4949 4.01372 18.5652C2.08407 16.6356 1 14.0184 1 11.2895C1 8.56054 2.08407 5.94337 4.01372 4.01372C5.94337 2.08407 8.56054 1 11.2895 1C14.0184 1 16.6356 2.08407 18.5652 4.01372C20.4949 5.94337 21.5789 8.56054 21.5789 11.2895V11.2895Z" stroke="white" stroke-width="2" stroke-linecap="round"/>
</svg>
