<svg width="15" height="15" viewBox="0 0 15 15" fill="none" xmlns="http://www.w3.org/2000/svg">
<path d="M7.5 10C7.32292 10 7.17458 9.94 7.055 9.82C6.935 9.70042 6.875 9.55208 6.875 9.375V3.01562L6.3125 3.57812C6.19792 3.69271 6.05479 3.75 5.88313 3.75C5.71104 3.75 5.5625 3.6875 5.4375 3.5625C5.32292 3.4375 5.26562 3.28896 5.26562 3.11687C5.26562 2.94521 5.32292 2.80208 5.4375 2.6875L7.0625 1.0625C7.11458 1.01042 7.17979 0.96875 7.25812 0.9375C7.33604 0.90625 7.41667 0.890625 7.5 0.890625C7.58333 0.890625 7.66417 0.90625 7.7425 0.9375C7.82042 0.96875 7.88542 1.01042 7.9375 1.0625L9.5625 2.6875C9.6875 2.8125 9.75 2.96354 9.75 3.14062C9.75 3.31771 9.6875 3.46354 9.5625 3.57812C9.4375 3.69271 9.28917 3.75 9.1175 3.75C8.94542 3.75 8.80208 3.69271 8.6875 3.57812L8.125 3.01562V9.375C8.125 9.55208 8.06521 9.70042 7.94563 9.82C7.82563 9.94 7.67708 10 7.5 10ZM3.75 14.375C3.40625 14.375 3.11208 14.2527 2.8675 14.0081C2.6225 13.7631 2.5 13.4688 2.5 13.125V6.25C2.5 5.90625 2.6225 5.61187 2.8675 5.36687C3.11208 5.12229 3.40625 5 3.75 5H5C5.17708 5 5.32563 5.05979 5.44563 5.17937C5.56521 5.29937 5.625 5.44792 5.625 5.625C5.625 5.80208 5.56521 5.95042 5.44563 6.07C5.32563 6.19 5.17708 6.25 5 6.25H3.75V13.125H11.25V6.25H10C9.82292 6.25 9.67458 6.19 9.555 6.07C9.435 5.95042 9.375 5.80208 9.375 5.625C9.375 5.44792 9.435 5.29937 9.555 5.17937C9.67458 5.05979 9.82292 5 10 5H11.25C11.5938 5 11.8881 5.12229 12.1331 5.36687C12.3777 5.61187 12.5 5.90625 12.5 6.25V13.125C12.5 13.4688 12.3777 13.7631 12.1331 14.0081C11.8881 14.2527 11.5938 14.375 11.25 14.375H3.75Z" fill="#687684"/>
</svg>
