<svg width="15" height="15" viewBox="0 0 15 15" fill="none" xmlns="http://www.w3.org/2000/svg">
<path d="M7.98769 1.48437C7.74956 1.1875 7.24956 1.1875 7.01144 1.48437L2.01144 7.73437C1.93809 7.82638 1.89217 7.93721 1.87896 8.05413C1.86574 8.17105 1.88577 8.28933 1.93675 8.39538C1.98772 8.50144 2.06756 8.59097 2.16712 8.65369C2.26667 8.71642 2.38189 8.7498 2.49956 8.75H4.99956V13.125C4.99956 13.2908 5.06541 13.4497 5.18262 13.5669C5.29983 13.6842 5.4588 13.75 5.62456 13.75H9.37456C9.54032 13.75 9.69929 13.6842 9.8165 13.5669C9.93371 13.4497 9.99956 13.2908 9.99956 13.125V8.75H12.4996C12.6172 8.7498 12.7325 8.71642 12.832 8.65369C12.9316 8.59097 13.0114 8.50144 13.0624 8.39538C13.1133 8.28933 13.1334 8.17105 13.1202 8.05413C13.107 7.93721 13.061 7.82638 12.9877 7.73437L7.98769 1.48437ZM9.37456 7.5H8.74956V12.5H6.24956V7.5H3.80019L7.49956 2.87562L11.1989 7.5H9.37456Z" fill="#687684"/>
</svg>
